<?xml version="1.0" standalone="no"?>
<!DOCTYPE svg PUBLIC "-//W3C//DTD SVG 20010904//EN"
 "http://www.w3.org/TR/2001/REC-SVG-20010904/DTD/svg10.dtd">
<svg version="1.0" xmlns="http://www.w3.org/2000/svg"
 width="512.000000pt" height="512.000000pt" viewBox="0 0 512.000000 512.000000"
 preserveAspectRatio="xMidYMid meet">
<metadata>
Created by potrace 1.14, written by Peter Selinger 2001-2017
</metadata>
<g transform="translate(0.000000,512.000000) scale(0.100000,-0.100000)"
fill="#000000" stroke="none">
<path d="M1959 4260 c-63 -11 -133 -43 -194 -89 -47 -35 -82 -81 -373 -482
l-43 -59 268 0 268 1 80 104 80 105 363 0 362 0 0 -105 0 -105 215 0 215 0 0
128 c0 199 -35 299 -138 393 -123 113 -159 119 -662 118 -217 -1 -416 -5 -441
-9z"/>
<path d="M3630 3951 l0 -321 408 0 409 0 61 30 c150 75 219 241 165 394 -24
67 -100 148 -171 183 l-57 28 -407 3 -408 3 0 -320z"/>
<path d="M725 3392 c-120 -42 -205 -117 -258 -230 l-32 -67 0 -960 0 -960 22
-55 c42 -104 132 -191 245 -239 l63 -26 1230 -2 c820 -2 1248 1 1284 8 170 33
313 180 341 350 12 79 13 1733 1 1831 -5 37 -20 92 -35 123 -36 78 -125 168
-205 208 l-66 32 -1270 2 c-1185 2 -1273 1 -1320 -15z m1336 -412 c69 -19 69
-17 69 -420 0 -403 0 -401 -69 -420 -22 -6 -242 -10 -574 -10 -600 0 -595 -1
-622 64 -22 52 -22 680 0 732 26 64 19 63 620 64 335 0 554 -4 576 -10z"/>
<path d="M4263 2987 l-423 -212 0 -640 0 -640 425 -213 425 -212 0 1065 c0
586 -1 1065 -2 1064 -2 0 -193 -95 -425 -212z"/>
</g>
</svg>
